<svg version="1.1" viewBox="0.0 0.0 960.0 960.0" fill="none" stroke="none" stroke-linecap="square" stroke-miterlimit="10" xmlns:xlink="http://www.w3.org/1999/xlink" xmlns="http://www.w3.org/2000/svg"><clipPath id="p.0"><path d="m0 0l960.0 0l0 960.0l-960.0 0l0 -960.0z" clip-rule="nonzero"/></clipPath><g clip-path="url(#p.0)"><path fill="#000000" fill-opacity="0.0" d="m0 0l960.0 0l0 960.0l-960.0 0z" fill-rule="evenodd"/><path fill="#a5dc95" d="m46.72441 480.0l0 0c0 -231.90741 193.98409 -419.90552 433.27557 -419.90552l0 0c114.911804 0 225.11719 44.239914 306.37213 122.98748c81.25488 78.74756 126.90344 185.55215 126.90344 296.91803l0 0c0 231.90741 -193.98407 419.90552 -433.27557 419.90552l0 0c-239.2915 0 -433.27557 -187.99811 -433.27557 -419.90552z" fill-rule="evenodd"/><path stroke="#ffffff" stroke-width="1.0" stroke-linejoin="round" stroke-linecap="butt" d="m46.72441 480.0l0 0c0 -231.90741 193.98409 -419.90552 433.27557 -419.90552l0 0c114.911804 0 225.11719 44.239914 306.37213 122.98748c81.25488 78.74756 126.90344 185.55215 126.90344 296.91803l0 0c0 231.90741 -193.98407 419.90552 -433.27557 419.90552l0 0c-239.2915 0 -433.27557 -187.99811 -433.27557 -419.90552z" fill-rule="evenodd"/><path fill="#ffffff" d="m387.61176 320.2415c-22.56314 0 -36.313416 3.7226562 -41.250916 11.167908c-2.4687195 3.8571777 -3.9614563 7.3779907 -4.47818 10.562408c-0.5166931 3.139557 -0.77505493 7.871338 -0.77505493 14.195343l0 247.1738c0 6.6379395 0.25836182 11.481873 0.77505493 14.531738c0.51672363 3.005005 2.0094604 6.5706177 4.47818 10.69696c4.9375 7.4452515 18.515533 11.167908 40.73419 11.167908c22.620544 0 36.19861 -3.5881348 40.73419 -10.764282c2.870636 -4.1262817 4.5643005 -7.7592163 5.081024 -10.898743c0.5166931 -3.1844482 0.77505493 -7.9610596 0.77505493 -14.329895l0 -80.12634c1.4353333 -7.4452515 6.8895264 -14.128052 16.36258 -20.04837c9.530487 -5.9651794 20.55368 -8.947784 33.06961 -8.947784c12.573364 0 22.907623 3.1844177 31.002808 9.553284c8.095154 6.3239746 12.1427 15.137207 12.1427 26.439636l0 72.322266c0 6.6378784 0.25836182 11.616394 0.77508545 14.935364c0.5741577 3.274109 2.2678223 6.974304 5.0809937 11.100586c5.2819824 7.1761475 18.687805 10.764282 40.21753 10.764282c22.56311 0 36.141174 -3.5881348 40.73419 -10.764282c2.8131714 -4.1262817 4.4781494 -7.7592163 4.994873 -10.898743c0.51672363 -3.1844482 0.77508545 -7.9610596 0.77508545 -14.329895l0 -72.72589c0 -30.319275 -11.740906 -55.95163 -35.222595 -76.89703c-23.424316 -20.945404 -52.762146 -31.418121 -88.01343 -31.418121c-23.653961 0 -44.293762 8.409546 -61.919434 25.228668l0 -91.36145c0 -6.324005 -0.25836182 -11.055786 -0.77505493 -14.195343c-0.51672363 -3.1844177 -2.2103882 -6.8397827 -5.081024 -10.966064c-4.5355835 -7.4452515 -17.941406 -11.167908 -40.21747 -11.167908z" fill-rule="evenodd"/><path stroke="#ffffff" stroke-width="1.0" stroke-linejoin="round" stroke-linecap="butt" d="m387.61176 320.2415c-22.56314 0 -36.313416 3.7226562 -41.250916 11.167908c-2.4687195 3.8571777 -3.9614563 7.3779907 -4.47818 10.562408c-0.5166931 3.139557 -0.77505493 7.871338 -0.77505493 14.195343l0 247.1738c0 6.6379395 0.25836182 11.481873 0.77505493 14.531738c0.51672363 3.005005 2.0094604 6.5706177 4.47818 10.69696c4.9375 7.4452515 18.515533 11.167908 40.73419 11.167908c22.620544 0 36.19861 -3.5881348 40.73419 -10.764282c2.870636 -4.1262817 4.5643005 -7.7592163 5.081024 -10.898743c0.5166931 -3.1844482 0.77505493 -7.9610596 0.77505493 -14.329895l0 -80.12634c1.4353333 -7.4452515 6.8895264 -14.128052 16.36258 -20.04837c9.530487 -5.9651794 20.55368 -8.947784 33.06961 -8.947784c12.573364 0 22.907623 3.1844177 31.002808 9.553284c8.095154 6.3239746 12.1427 15.137207 12.1427 26.439636l0 72.322266c0 6.6378784 0.25836182 11.616394 0.77508545 14.935364c0.5741577 3.274109 2.2678223 6.974304 5.0809937 11.100586c5.2819824 7.1761475 18.687805 10.764282 40.21753 10.764282c22.56311 0 36.141174 -3.5881348 40.73419 -10.764282c2.8131714 -4.1262817 4.4781494 -7.7592163 4.994873 -10.898743c0.51672363 -3.1844482 0.77508545 -7.9610596 0.77508545 -14.329895l0 -72.72589c0 -30.319275 -11.740906 -55.95163 -35.222595 -76.89703c-23.424316 -20.945404 -52.762146 -31.418121 -88.01343 -31.418121c-23.653961 0 -44.293762 8.409546 -61.919434 25.228668l0 -91.36145c0 -6.324005 -0.25836182 -11.055786 -0.77505493 -14.195343c-0.51672363 -3.1844177 -2.2103882 -6.8397827 -5.081024 -10.966064c-4.5355835 -7.4452515 -17.941406 -11.167908 -40.21747 -11.167908z" fill-rule="evenodd"/></g></svg>